<?xml version="1.0" encoding="utf-8"?>
<!-- Generator: Adobe Illustrator 19.2.1, SVG Export Plug-In . SVG Version: 6.00 Build 0)  -->
<svg version="1.1" id="layer" xmlns="http://www.w3.org/2000/svg" xmlns:xlink="http://www.w3.org/1999/xlink" x="0px" y="0px"
	 viewBox="0 0 652 652" style="enable-background:new 0 0 652 652;" xml:space="preserve">
<style type="text/css">
	.st0{fill:#BBDC00;}
</style>
<path class="st0" d="M382.3,346.6l37.8-51.1c2-3.1,2-7.1,0-10.2c-1.5-2-4.1-3.1-8.2-3.1h-7.1c-3.1,0-6.1,1.5-7.7,4.1l-29.6,40.3
	l-29.1-39.8c-2-3.1-5.6-4.6-9.7-4.6H323c-3.6,0-6.1,1-8.2,3.1c-2.6,3.1-2.6,7.1,0,10.2l37.8,51.1l-41.9,57.2c-2,3.1-2,7.1,0.5,10.2
	c1.5,2,4.1,3.1,6.6,3.1h8.7c2.6,0,5.1-1.5,6.6-3.6l34.2-47l34.2,46.5c2,2.6,4.6,4.1,7.7,4.1h8.7c3.1,0,6.1-1.5,7.7-4.6
	c1.5-3.1,1-6.1-0.5-8.7L382.3,346.6L382.3,346.6z M453.8,282.3h-1.5c-6.6,0-11.2,4.6-11.2,10.2v113.9c0,5.6,4.6,10.2,10.2,10.2h3.6
	c5.6,0,10.2-4.6,10.2-10.2V292.5C465.5,286.4,460.4,282.3,453.8,282.3z M600.3,299.6c-13.3-13.3-30.1-20.4-49-20.4
	c-19.4,0-35.7,6.6-49,20.4c-13.3,13.3-19.9,30.1-19.9,49.5c0,19.4,6.6,36.3,19.9,49.5c13.3,13.3,29.6,20.4,49,20.4
	c19.4,0,35.7-6.6,49-20.4c13.3-13.3,19.9-30.1,19.9-49.5C620.7,329.8,614.1,312.9,600.3,299.6z M520.1,316.5
	c8.7-9.2,18.9-13.3,31.7-13.3s23,4.1,31.7,13.3s12.8,19.9,12.8,32.7c0,13.3-4.1,24-12.8,32.7c-8.7,8.7-18.9,13.3-31.7,13.3
	s-23-4.1-31.1-13.3c-8.7-8.7-12.8-19.9-12.8-33.2C507.4,335.9,511.5,325.7,520.1,316.5z M303.6,354.3c2.6-3.1,4.1-6.6,3.6-10.7
	c-1-16.9-8.2-31.7-19.9-43.4c-13.3-13.3-30.1-20.4-49-20.4c-19.4,0-35.7,6.6-49,20.4c-13.3,13.3-19.9,30.1-19.9,49.5
	s6.6,36.3,19.9,49.5c13.3,13.3,29.6,20.4,49,20.4c18.9,0,35.7-6.6,49-20.4c5.1-5.1,9.2-11.7,12.3-16.9c1-2,1-4.6,0-6.6
	c-1.5-2-3.6-3.6-6.6-3.6h-8.7c-5.1,0-7.1,1-8.2,3.1c-1.5,2.6-3.6,5.1-5.6,7.1c-8.7,8.7-18.9,13.3-31.7,13.3
	c-12.8,0-23-4.1-31.1-13.3c-6.6-6.6-10.7-14.8-11.7-24h97.5C297.5,358.9,301.1,356.8,303.6,354.3z M238.8,303.7
	c12.8,0,23,4.1,31.7,13.3c5.6,5.6,9.2,11.7,10.7,18.4h-84.8c2-6.6,5.6-12.8,10.7-18.4C215.8,307.8,226,303.7,238.8,303.7z
	 M88.7,279.7c-16.9,0-32.2,5.6-44.4,16.3v-61.8c0-5.6-4.6-9.7-11.2-9.7h-1.5c-6.6,0-11.2,4.1-11.2,9.7v115.4
	c0,19.4,6.6,36.3,19.9,49.5c13.3,13.3,29.6,20.4,49,20.4s35.7-6.6,49-20.4c13.3-13.3,19.9-30.1,19.9-49.5s-6.6-36.3-19.9-49.5
	C124.4,286.4,108.1,279.7,88.7,279.7z M88.7,395.6c-12.8,0-23-4.1-31.1-13.3c-8.7-8.7-12.8-19.9-12.8-33.2
	c0-12.8,4.1-23.5,12.3-32.7c8.7-8.7,18.9-13.3,31.7-13.3s23,4.1,31.7,13.3s12.8,19.9,12.8,32.7c0,13.3-4.1,24-12.8,32.7
	C111.7,391,101.4,395.6,88.7,395.6z M453.3,226.6c-9.2,0-16.9,7.7-16.9,16.9s7.7,16.9,16.9,16.9c9.2,0,16.9-7.7,16.9-16.9
	S462.4,226.6,453.3,226.6z"/>
</svg>
