<?xml version="1.0" encoding="UTF-8"?>
<svg xmlns="http://www.w3.org/2000/svg" viewBox="0 0 100 120">
  <g fill="#000000">
    <path d="M0,69.64c.03,4.44.06,8.3.08,11.41.03,4.18.05,8.86.09,18.21,0,.19,0,1.72,0,1.91,6.91,0,13.83,0,20.74,0,.09-3,.04-5.43-.01-7.01,0,0-.78-26.25.94-29.22.24-.41.52-.76.86-1.12,2.64-2.76,5.65-2.25,28.88-2.14,7,.04,12.75.02,16.6,0v-16.42c-28.72-.25-40.42-.25-44.98-.17-.14,0-.22,0-.3,0-3.68.09-9.13.22-14.07,3.25-1.59.97-6.71,4.45-8.29,10.73-.41,1.63-.48,3.04-.47,4-.02,2.19-.04,4.38-.06,6.57Z"/>
    <path d="M.11,2.3l-.03,28.03c0,5.79-.01,11.57-.02,17.36,1.8-1.51,4.48-3.4,8.08-4.85,5.34-2.15,10.11-2.27,12.89-2.12v-22.3h52.38V2.26c-24.43.01-48.87.02-73.3.03Z"/>
  </g>
</svg>
