<?xml version="1.0" encoding="UTF-8"?>
<svg xmlns="http://www.w3.org/2000/svg" viewBox="0 0 479.96 131.7">
  <defs>
    <style>
      .cls-1 {
        fill: #1d1d1b;
      }
    </style>
  </defs>
  <g id="Calque_2" data-name="Calque 2">
    <rect class="cls-1" x="462.48" y="83.65" width="17.48" height="17.48" rx="2.87" ry="2.87"/>
  </g>
  <g id="Calque_3" data-name="Calque 3">
    <g>
      <path class="cls-1" d="M0,69.64c.03,4.44.06,8.3.08,11.41.03,4.18.05,8.86.09,18.21,0,.19,0,1.72,0,1.91,6.91,0,13.83,0,20.74,0,.09-3,.04-5.43-.01-7.01,0,0-.78-26.25.94-29.22.24-.41.52-.76.86-1.12,2.64-2.76,5.65-2.25,28.88-2.14,7,.04,12.75.02,16.6,0v-16.42c-28.72-.25-40.42-.25-44.98-.17-.14,0-.22,0-.3,0-3.68.09-9.13.22-14.07,3.25-1.59.97-6.71,4.45-8.29,10.73-.41,1.63-.48,3.04-.47,4-.02,2.19-.04,4.38-.06,6.57Z"/>
      <path class="cls-1" d="M.11,2.3l-.03,28.03c0,5.79-.01,11.57-.02,17.36,1.8-1.51,4.48-3.4,8.08-4.85,5.34-2.15,10.11-2.27,12.89-2.12v-22.3h52.38V2.26c-24.43.01-48.87.02-73.3.03Z"/>
    </g>
  </g>
  <g id="Calque_1" data-name="Calque 1">
    <path class="cls-1" d="M81.53,101.14V23.13h20.23v78h-20.23Z"/>
    <path class="cls-1" d="M184.85,57.15v43.99h-20.23v-41.2c0-3.23,0-6.89-.29-10.85-.59-8.21-5.13-13.78-14.96-13.78s-17.59,8.51-17.59,30.21v35.63h-20.23V23.13h20.23v12.61c.64-2.09,2.19-6.09,6.01-9.24,2.11-1.73,4.09-2.54,5.81-3.22,1.93-.77,6.57-2.21,12.96-2.21,16.57,0,26.1,8.21,27.71,21.85.44,3.96.59,7.92.59,14.22Z"/>
    <path class="cls-1" d="M239.69,89.7c-.27,1.9-1.06,5.41-3.81,8.36-3.63,3.88-8.47,4.42-12.4,4.8-3.32.32-20.64,1.99-28.42-9.75-3.49-5.28-3.61-11.07-3.61-12.64,0-17.15,14.66-26.83,42.96-26.83h4.99v-1.61c0-2.35,0-4.69-.29-7.33-.59-5.42-4.11-9.38-12.02-9.38s-12.46,4.69-13.05,13.2l-19.65.15c.59-17.59,14.81-27.57,33.43-27.57,21.85,0,30.06,9.53,31.23,23.02.29,3.67.44,7.77.44,12.02v25.22c-.12,1.84-.12,3.94.14,6.25.67,5.87,2.71,10.46,4.4,13.46-7.62.03-15.25.06-22.87.08l-1.47-11.44ZM239.4,72.4v-6.31c-16.13-1.17-26.98,2.49-26.98,12.76,0,6.89,4.69,10.12,11.88,10.12,8.21,0,15.1-5.72,15.1-16.57Z"/>
    <path class="cls-1" d="M287.41,75.62c0,3.08,0,5.13.15,7.18.44,3.96,2.2,5.28,9.09,4.84v13.93c-3.96.44-7.92.59-12.46.59-9.97,0-16.28-3.67-16.72-13.78-.29-3.52-.29-7.18-.29-12.32V2.16h20.23s0,73.46,0,73.46Z"/>
    <path class="cls-1" d="M345.74,102.64c-2.99,8.05-8.96,24.51-22.13,28.12-2.43.67-4.38.7-5.61.7-22.73.18-43.65.22-50.97.23,0-4.56,0-9.12,0-13.68,19.86-.15,34.88-.38,42.54-.31,1.46.01,4.85.06,8.18-1.95,2.65-1.6,4.75-4.29,6.48-8.46l1.03-2.49-31.82-81.67h22.58l19.35,62.61,19.06-62.61h22.14c-12.86,33.14-23.5,59.73-30.84,79.51Z"/>
    <path class="cls-1" d="M453.83,57.15v43.99h-20.23v-41.2c0-3.23,0-6.89-.29-10.85-.59-8.21-5.13-13.78-14.96-13.78s-17.6,8.51-17.6,30.21v35.63h-20.23V23.13h20.23v12.61c.64-2.09,2.19-6.09,6.01-9.24,2.11-1.74,4.1-2.54,5.82-3.22,1.93-.76,6.56-2.2,12.95-2.2,16.57,0,26.1,8.21,27.71,21.85.44,3.96.59,7.92.59,14.22Z"/>
    <rect class="cls-1" x="81.52" y="2.34" width="20.23" height="15.9"/>
  </g>
</svg>