<?xml version="1.0" encoding="UTF-8"?>
<svg id="Calque_1" data-name="Calque 1" xmlns="http://www.w3.org/2000/svg" viewBox="0 0 218.71 239.77">
  <defs>
    <style>
      .cls-1 {
        fill: #fff;
      }
    </style>
  </defs>
  <rect class="cls-1" x="174.89" y="195.95" width="43.82" height="43.82" rx="4.12" ry="4.12"/>
  <g>
    <path class="cls-1" d="M0,163.24c.08,10.77.14,20.11.18,27.64.06,10.14.13,21.46.22,44.12,0,.46.02,4.16.02,4.62,16.75,0,33.5,0,50.25,0,.21-7.27.1-13.15-.03-16.98,0,0-1.89-63.59,2.27-70.79.57-.99,1.26-1.85,2.08-2.71,6.4-6.68,13.7-5.46,69.96-5.18,16.95.08,30.89.05,40.22,0v-39.78c-69.59-.61-97.92-.6-108.99-.42-.35,0-.52,0-.73.01-8.91.21-22.12.52-34.1,7.86-3.85,2.36-16.26,10.77-20.08,25.99-.99,3.94-1.16,7.35-1.13,9.69-.05,5.3-.1,10.61-.15,15.91Z"/>
    <path class="cls-1" d="M.27.08c-.02,22.64-.04,45.28-.06,67.92-.01,14.02-.03,28.04-.04,42.06,4.35-3.65,10.86-8.24,19.58-11.75,12.93-5.2,24.49-5.49,31.23-5.13v-54.03h126.9V0C118.67.03,59.47.05.27.08Z"/>
  </g>
</svg>