<?xml version="1.0" encoding="UTF-8"?>
<svg id="Calque_1" data-name="Calque 1" xmlns="http://www.w3.org/2000/svg" viewBox="0 0 219 251.53">
  <defs>
    <style>
      .cls-1 {
        fill: #fff;
      }
    </style>
  </defs>
  <rect class="cls-1" x="175.18" y="207.71" width="43.82" height="43.82" rx="4.12" ry="4.12"/>
  <path class="cls-1" d="M.31,164.61c-.07,11.26.12,16.89.18,27.6.12,19.73.21,39.46.28,59.19h50.28c.03-6.4.05-15.92,0-27.48-.25-60.15-1.92-66.85,4.36-73.38,6.42-6.67,13.73-5.45,70.11-5.17,16.98.08,30.96.05,40.3,0v-39.72c-40.13-.15-80.27-.31-120.4-.46-5.58.38-14.71,1.89-23.71,7.91C5.98,123.62,1.88,140.41.92,145.35c-.49,2.55-.54,8.15-.61,19.26Z"/>
  <path class="cls-1" d="M.1.08c-.02,22.75-.04,45.5-.06,68.25-.01,14.09-.03,28.18-.04,42.27,4.37-3.67,10.91-8.28,19.67-11.8,13-5.22,24.61-5.52,31.38-5.16v-54.3h127.52V0C119.08.03,59.59.05.1.08Z"/>
</svg>